<svg version="1.2" xmlns="http://www.w3.org/2000/svg" viewBox="0 0 100 119" width="100" height="119">
	<title>Pikachu SVG File-svg</title>
	<style>
		.s0 { fill: #000000 } 
		.s1 { fill: #ffd73e } 
		.s2 { fill: #ee4e36 } 
		.s3 { fill: #ffffff } 
		.s4 { fill: #ee7277 } 
	</style>
	<g id="layer1">
		<g id="g2864">
			<path id="path2423" fill-rule="evenodd" class="s0" d="m64.4 2.1q0.5 0.2 1.4 1.4c3.1 3.8 6.3 10.9 7.9 17.6 1.1 4.7 1.7 8.2 1.8 12.7q0.1 0.8 0.1 1.8 0 1 0 1.9 0 0.5 0.1 0.8v0.2q0 0.4 0 0.7l0.6 1.4c0.8 1.8 1.1 3 1.6 5.4 0.7 3.2 1 4.3 2.1 7.3 1.1 3.2 1.4 4.3 1.4 6.1 0.1 0.9-0.2 2.4-0.5 3.2-0.1 0.3-0.3 0.7-0.5 1.2q-0.3 0.6-0.7 1.4c-0.6 0.9-1.2 1.9-1.4 2.1 0 0-0.2 0.3-0.5 0.6-0.2 0.3-0.8 1-1.3 1.5-0.5 0.5-0.7 0.7-0.9 0.9q0 0.2 0 0.3-0.1 0.2 0 0.3c0 0.3 0.1 0.9 0.1 1.3 0.2 2.7 1.2 5.8 2.9 9.2 0.6 1 1.1 2.1 1.3 2.4 0.2 0.5 0.4 0.7 0.6 0.7 0.9 0.3 2.3 1.2 3.7 2.6 0.4 0.4 0.7 0.7 0.8 0.7q0 0 0.1-0.1c0.1-0.2 0.3-0.7 0.7-1.4q0.3-0.7 0.6-1.2 0.3-0.4 0.5-0.6 0.3-0.3 0.5-0.2 0.1 0 0.2-0.1 0 0 0.1-0.1 0.2-0.1 0.3-0.2c0.2-0.3 0.4-0.4 0.6-0.4q0.1 0 0.1 0 0 0 0 0 0 0 0.1 0 0 0 0 0 0 0 0 0 0.1 0 0.2 0c0.1 0 0.2 0.1 0.4 0.3q0.1 0.1 0.2 0.3c0.1 0.3 0.3 0.5 0.4 0.6 0.5 0.4 0.8 1.4 0.8 2.8q0 0.1 0 0.2c0.1 0.1 0 0.5 0 1.1-0.2 3.5-1.3 8.3-3 12.1q-0.5 1.1-1.1 2.1-0.5 0.8-1 1.4c-0.6 0.7-1.1 1.2-1.6 1.4q-0.6 0.3-1.1 0.2 0 0 0 0-0.5-0.1-0.9-0.6l-0.3-0.3v-0.1l-0.3 0.1-1.4 0.2c-2.3 0.3-3.6 0.4-5.4 0.5-1.4 0-2.8 0.1-3.9 0h-1c-0.8 0-0.8 0.1-0.8 0.3 0 0.3-0.3 0.6-0.9 0.6q0 0 0 0-0.1 0-0.2 0 0 0 0 0 0 0 0 0-0.1 0-0.2 0 0 0 0 0 0 0 0 0-0.2 0-0.3 0.1 0 0-0.1 0 0 0.1-0.1 0.3c-0.1 0.4-0.2 0.4-0.8 0.3-0.3 0-0.7-0.1-0.8-0.1q-0.1-0.1-0.1-0.1-0.1 0-0.1 0.1 0 0 0 0c0 0.3-0.4 0.6-0.7 0.6-0.1 0-0.5-0.2-1-0.5-0.4-0.2-0.8-0.4-0.8-0.4q0 0-0.1 0.2-0.1 0.1-0.1 0.2c-0.2 0.7-0.6 0.8-1.4 0.2q-0.2-0.1-0.4-0.3 0 0 0-0.1l-0.7-0.6-0.7 0.3q-0.2 0.1-0.4 0.2l-0.3 0.1-0.4-0.1q-0.3 0-0.7-0.2l-0.5-0.1q-0.1 0-0.2 0.1l-0.6 0.6c-0.9 0.9-1.2 0.9-1.8 0.2l-0.4-0.4v-0.1l-0.6 0.4c-1 0.6-1.1 0.6-1.5 0.2l-0.4-0.3q0 0 0 0-0.1 0-0.2 0l-0.1 0.1c-0.3 0.3-0.7 0.6-0.9 0.6 0 0-0.1-0.1-0.2-0.3q-0.2 0-0.3-0.2l-0.4-0.4-0.6 0.2q-0.6 0.3-1 0.3-0.4 0-0.6-0.3-0.1-0.3 0-0.7v-0.5l-1.4 0.1c-0.9 0-2.2 0.1-3 0.2-1.9 0.1-6.1 0.1-7 0q-0.2 0-0.5-0.1-0.5-0.1-1-0.3 0 0 0 0l-0.8-0.3-0.3 0.3c-0.4 0.4-0.7 0.4-1.4 0.2-0.9-0.4-1.8-1.4-2.9-3.3-0.4-0.6-0.8-1.4-1.2-2.4-0.4-0.7-0.7-1.4-0.9-1.8-0.5-1.4-1-2.7-1.3-3.7-0.1-0.4-0.3-1.1-0.4-1.7-0.6-2.2-1-4.2-1.1-5.8q0-0.3 0-0.7 0-0.2 0-0.4c0.1-0.7 0.2-1.3 0.4-1.5q0.1-0.1 0.1-0.1c0.1-0.1 0.2-0.4 0.3-0.6q0.1-0.9 0.8-0.9 0.1 0 0.1 0 0 0 0 0 0 0 0 0 0 0 0 0 0 0 0 0 0 0 0 0c0.4 0 0.5 0.1 1.4 1q0 0 0.1 0.1 0.1 0.1 0.2 0.2c0.4 0.5 0.9 1 1.1 1.3 0.2 0.2 0.3 0.5 0.4 0.6q0.1-0.1 0.4-0.3c0.2-0.4 0.8-0.8 1.4-1.2q0.4-0.2 0.8-0.3 0.5-0.2 1.1-0.3c0.6-0.1 0.7-0.1 0.9-0.4q0-0.2 0-0.3 0-0.2-0.1-0.6 0 0 0-0.1c-0.2-0.3-0.4-0.8-0.4-1.1q-0.1-0.1-0.1-0.2c-0.1-0.2-0.2-0.3-0.4-0.4q0 0-0.1 0c-0.6-0.3-3.4-1.4-5.6-2.1-1.3-0.5-1.9-0.7-2.2-0.9q-0.1-0.1-0.1-0.2 0 0 0 0 0-0.1 0-0.1c0-0.3 2.3-8.3 3.3-11.6q0.1-0.2 0.1-0.4 0.1-0.2 0.1-0.3-0.1 0-0.7-0.1-0.2 0-0.5-0.1c-0.6 0-1.4-0.1-1.6-0.1-0.9-0.1-3.6-0.1-6.1-0.2q-1 0-2 0-1.1 0-2.1 0-0.5 0-0.7 0c-1.1 0-1.6 0.1-1.9-0.1q-0.1 0-0.1 0 0 0-0.1-0.1c-0.2-0.2-0.4-0.6-0.8-1.3-1.1-1.8-2.4-4.4-3.8-7.2-0.2-0.5-0.3-0.8-0.4-0.9-1.6-3.5-3.1-7.1-4-10q-0.4-1-0.4-1.4-0.1-0.2-0.1-0.3 0 0 0 0 0 0 0 0 0-0.1 0-0.2 0.1-0.2 0.2-0.2c0.1 0 0.5 0 1.1 0q0.3 0 0.9 0 1.1 0.1 2.3 0.2c1 0 2 0.1 2.7 0.2 5.4 0.6 11.7 2.1 17.2 4q3 1 4.1 1.5c0.3 0.2 0.8 0.4 0.9 0.4 0.2 0.1 0.8 0.3 1.5 0.6q0.4 0.3 0.8 0.4 0.2 0.1 0.4 0.1 0 0 0.1-0.3 0-0.1 0-0.2 0-0.1 0-0.3c0-1.8 0.6-5.7 1.1-7.1q0-0.2 0-0.3c0-0.1-0.2-0.2-0.6-0.3-1-0.3-3.5-1.2-6-2.2q-0.8-0.4-1.4-0.6-0.9-0.4-1.7-0.7c-1.8-0.8-4.9-2.3-7.5-3.7-0.8-0.4-1.5-0.8-1.8-1-1.2-0.6-2.2-1.2-2.6-1.5-0.2-0.1-0.4-0.2-0.5-0.2-0.1 0-2.4-1.7-3.6-2.5-0.3-0.3-0.8-0.7-1.2-1.1q-0.8-0.7-1.4-1.3c-0.5-0.5-0.9-1-1.1-1.2q0-0.2-0.1-0.3 0-0.1 0-0.2 0-0.3 0.2-0.4 0.2-0.1 0.3-0.2c0.2-0.1 0.8-0.1 1.6-0.2q0.2 0 0.6 0 0.4 0 1 0 0.2 0 0.6 0c0.9 0 1.9 0 2.6 0.1 6.9 0.5 15.1 2.6 21.8 5.5q0.7 0.2 1.5 0.6 0.8 0.4 1.6 0.8 0.3 0.1 0.5 0.3c1.6 0.8 3.1 1.6 3.9 2.1l0.3 0.2q0.1 0 0.2 0 0.1-0.1 0.4-0.2h0.1c1.5-0.8 6.1-1.9 9.1-2.3 4.2-0.5 8.9-0.5 11.1 0 0.3 0.1 0.4 0.1 0.4 0q0 0 0-0.1 0 0 0 0c-0.4-1.3-0.9-5.5-1.2-10.5q0-0.2-0.1-0.4 0-0.4 0-0.9-0.1-1.4-0.1-2.7c-0.1-1.1-0.1-3.4-0.1-5.7q-0.1-1.7-0.1-3.3c0-1.8 0.1-3.3 0.1-3.7q0.1-0.7 0.1-1.2 0 0 0 0c0.2-1.1 0.3-1.6 0.6-1.8q0.1-0.1 0.2-0.1 0.1-0.1 0.1-0.1 0.1 0 0.1 0 0.1 0 0.3 0.2zm-32.4 73.4l3.9 2 1.9-7.5-1-1.9z"/>
			<path id="path2700" class="s1" d="m50.6 108.1q0 0.1-0.1 0.1 0 0 0 0 0.1 0 0.1-0.1z"/>
			<path id="path2698" class="s1" d="m55.7 108.1q-0.1 0-0.2 0.1 0.1-0.1 0.2-0.1z"/>
			<path id="path2696" class="s1" d="m52.9 108q-0.2 0.1-0.3 0.1 0.1 0 0.3-0.1z"/>
			<path id="path2694" class="s1" d="m52.3 108q0 0 0.1 0.1-0.1-0.1-0.1-0.1z"/>
			<path id="path2692" class="s1" d="m54.8 107.9q0.1 0.1 0.2 0.2-0.1-0.1-0.2-0.2z"/>
			<path id="path2690" class="s1" d="m64.7 107.9q0 0 0 0 0.1 0 0.1 0 0 0-0.1 0 0 0 0 0z"/>
			<path id="path2688" class="s1" d="m65 107.8q-0.1 0.1-0.2 0.1 0.1 0 0.2-0.1z"/>
			<path id="path2686" class="s1" d="m48.2 107.8q-0.1 0-0.2 0 0 0-0.1 0 0.1 0 0.1 0 0.1 0 0.2 0z"/>
			<path id="path2684" class="s1" d="m48.6 107.7q-0.1 0-0.3 0.1 0.2-0.1 0.3-0.1z"/>
			<path id="path2682" class="s1" d="m48.9 107.6q-0.2 0.1-0.3 0.1 0.1 0 0.3-0.1z"/>
			<path id="path2680" class="s1" d="m51.6 107.5q0 0-0.1 0l-0.1 0.1c-0.1 0.2-0.3 0.3-0.5 0.4 0.2-0.1 0.4-0.2 0.5-0.4l0.1-0.1q0.1 0 0.1 0z"/>
			<path id="path2678" class="s1" d="m51.7 107.5q-0.1 0-0.1 0 0 0 0.1 0 0 0 0 0 0 0 0 0z"/>
			<path id="path2676" class="s1" d="m67 107.4q-0.1 0-0.2 0 0.1 0 0.2 0z"/>
			<path id="path2674" class="s1" d="m67 107.4q0 0 0 0 0 0 0 0z"/>
			<path id="path2672" class="s1" d="m67.1 107.3q0 0.1 0 0.1 0 0 0-0.1z"/>
			<path id="path2670" class="s1" d="m65.4 107.3q0 0 0 0 0 0 0 0 0 0.1 0 0.1 0 0 0-0.1 0 0 0 0 0 0 0 0z"/>
			<path id="path2668" class="s1" d="m65.7 107.3c0.2 0 0.4 0.1 0.7 0.1-0.3 0-0.5-0.1-0.7-0.1z"/>
			<path id="path2666" class="s1" d="m49.6 107.3l-0.6 0.2q0 0.1-0.1 0.1 0.1 0 0.1-0.1c0 0 0.6-0.2 0.6-0.2z"/>
			<path id="path2664" class="s1" d="m54.2 107.2l-0.6 0.4q-0.2 0.1-0.4 0.2 0.2-0.1 0.4-0.2c0 0 0.6-0.4 0.6-0.4z"/>
			<path id="path2662" class="s1" d="m62.7 107.6q-0.1 0.1-0.2 0.2 0.1-0.1 0.2-0.2z"/>
			<path id="path2660" class="s1" d="m62.8 107.1q0 0 0 0.1-0.1 0.1-0.1 0.2 0 0.1 0 0.2 0-0.1 0-0.2 0-0.1 0.1-0.2 0-0.1 0-0.1z"/>
			<path id="path2658" class="s1" d="m62.9 107q0 0 0 0 0 0 0 0 0 0 0 0z"/>
			<path id="path2656" class="s1" d="m67.3 106.9q-0.1 0.1-0.1 0.2 0 0.1 0 0.1 0 0 0-0.1 0-0.1 0.1-0.2z"/>
			<path id="path2654" class="s1" d="m67.3 106.8q0 0.1 0 0.1 0 0 0-0.1 0 0 0 0z"/>
			<path id="path2652" class="s1" d="m67.7 106.7q-0.2 0-0.3 0.1 0.1-0.1 0.3-0.1z"/>
			<path id="path2650" class="s1" d="m67.9 106.7q-0.1 0-0.2 0 0 0 0 0 0 0 0 0 0 0 0 0 0 0 0 0 0.1 0 0.2 0z"/>
			<path id="path2648" class="s1" d="m68.3 106.7q-0.1 0-0.2 0 0 0 0 0 0 0 0 0 0.1 0 0.2 0z"/>
			<path id="path2646" class="s1" d="m56.3 107.6q-0.2 0.2-0.3 0.3 0.1-0.1 0.3-0.3z"/>
			<path id="path2644" class="s1" d="m57.1 106.9q-0.1 0-0.1 0l-0.6 0.6q-0.1 0.1-0.1 0.1 0 0 0.1-0.1l0.6-0.6q0 0 0.1 0z"/>
			<path id="path2642" class="s1" d="m60.2 106.6l-0.7 0.3q-0.2 0.1-0.4 0.2l-0.3 0.1-0.4-0.1q-0.3 0-0.7-0.2l-0.5-0.1q-0.1 0-0.1 0.1 0-0.1 0.1-0.1l0.5 0.1q0.4 0.2 0.7 0.2l0.4 0.1 0.3-0.1q0.2-0.1 0.4-0.2c0 0 0.7-0.3 0.7-0.3z"/>
			<path id="path2640" class="s1" d="m68.8 106.5q-0.1 0-0.2 0.1 0.1-0.1 0.2-0.1z"/>
			<path id="path2638" class="s1" d="m32.5 106.5q0.1 0 0.1 0 0 0-0.1 0z"/>
			<path id="path2636" class="s1" d="m32.3 106.5q0.1 0 0.2 0-0.1 0-0.2 0z"/>
			<path id="path2634" class="s1" d="m36.2 106.6q0.3 0 0.6 0.1-0.3-0.1-0.6-0.1z"/>
			<path id="path2632" class="s1" d="m35.3 106.4q0.1 0.1 0.2 0.1 0.3 0.1 0.5 0.1 0.1 0 0.2 0-0.1 0-0.2 0-0.2 0-0.5-0.1-0.1 0-0.2-0.1z"/>
			<path id="path2630" class="s1" d="m44.5 106.5c-0.5 0-1.1 0.1-1.5 0.1q-0.3 0-0.8 0 0.5 0 0.8 0c0.4 0 1-0.1 1.5-0.1z"/>
			<path id="path2628" class="s1" d="m47.4 106.3l-1.4 0.1c-0.4 0-1 0-1.5 0.1 0.5-0.1 1.1-0.1 1.5-0.1 0 0 1.4-0.1 1.4-0.1z"/>
			<path id="path2626" class="s1" d="m31.7 106.2q0.2 0.1 0.3 0.2-0.1-0.1-0.3-0.2z"/>
			<path id="path2624" class="s1" d="m69 106q0 0 0 0.1 0 0 0 0 0 0 0 0 0-0.1 0-0.1z"/>
			<path id="path2622" class="s1" d="m33 106.5q-0.1 0-0.2 0 0.1 0 0.2 0z"/>
			<path id="path2620" class="s1" d="m33.4 106.3q-0.2 0.1-0.4 0.2 0.2-0.1 0.4-0.2z"/>
			<path id="path2618" class="s1" d="m33.7 105.9l-0.3 0.3q0 0 0 0.1 0-0.1 0-0.1l0.3-0.3 0.8 0.3q0 0 0 0 0 0 0 0 0 0 0 0z"/>
			<path id="path2616" class="s1" d="m83 106q0.3 0 0.6 0-0.3 0-0.6 0z"/>
			<path id="path2614" class="s1" d="m82.9 105.9q0.1 0 0.1 0.1 0 0 0 0 0 0 0 0 0-0.1-0.1-0.1z"/>
			<path id="path2612" class="s1" d="m69 105.9q0 0 0 0 0 0 0 0z"/>
			<path id="path2610" class="s1" d="m69.3 105.8q-0.2 0.1-0.3 0.1 0.1 0 0.3-0.1z"/>
			<path id="path2608" class="s1" d="m69.8 105.8q-0.1 0-0.2 0 0.1 0 0.2 0h1q0.9 0.1 1.8 0-0.9 0.1-1.8 0z"/>
			<path id="path2606" class="s1" d="m84.1 105.8q-0.1 0.1-0.3 0.1 0.2 0 0.3-0.1z"/>
			<path id="path2604" class="s1" d="m75.3 105.7q-0.3 0-0.6 0.1-0.6 0-1.1 0 0.5 0 1.1 0 0.3 0 0.6-0.1z"/>
			<path id="path2602" class="s1" d="m82.3 105.6q0.2 0.1 0.3 0.2-0.1-0.1-0.3-0.2z"/>
			<path id="path2600" class="s1" d="m30.8 105.5q0.1 0.1 0.2 0.2-0.1-0.1-0.2-0.2z"/>
			<path id="path2598" class="s1" d="m78.5 105.5c-0.9 0.1-1.7 0.2-2.5 0.2 0.8 0 1.6-0.1 2.5-0.2z"/>
			<path id="path2596" class="s1" d="m84.8 105.3q-0.2 0.2-0.3 0.3 0.1-0.1 0.3-0.3z"/>
			<path id="path2594" class="s1" d="m81.8 105l-0.3 0.1-1.4 0.2q-0.4 0-0.8 0.1 0.4-0.1 0.8-0.1l1.4-0.2c0 0 0.3-0.1 0.3-0.1z"/>
			<path id="path2592" class="s1" d="m85.9 104.1q-0.1 0.2-0.2 0.3-0.1 0.2-0.3 0.3 0.2-0.1 0.3-0.3 0.1-0.1 0.2-0.3z"/>
			<path id="path2590" class="s1" d="m90.5 91.6q-0.1 0.8-0.3 1.6 0.2-0.8 0.3-1.6z"/>
			<path id="path2588" class="s1" d="m90.8 87.5q0 0.1 0 0.2 0.1 0 0 0.4 0.1-0.4 0-0.4 0-0.1 0-0.2z"/>
			<path id="path2586" class="s1" d="m29 86.6q0.1 0 0.1 0.1 0 0 0 0 0-0.1-0.1-0.1z"/>
			<path id="path2584" class="s1" d="m90.7 86.2q0 0.1 0 0.3 0-0.2 0-0.3z"/>
			<path id="path2582" class="s1" d="m28.6 86q0 0 0.1 0.1 0.1 0.2 0.2 0.3-0.1-0.1-0.2-0.3-0.1-0.1-0.1-0.1z"/>
			<path id="path2580" class="s1" d="m90.3 85.1q0.1 0.2 0.2 0.3-0.1-0.1-0.2-0.3z"/>
			<path id="path2578" class="s1" d="m90.1 84.8q0.1 0.1 0.2 0.2-0.1-0.1-0.2-0.2z"/>
			<path id="path2576" class="s1" d="m80.1 84.3q0.1 0 0.1 0.1 0-0.1-0.1-0.1z"/>
			<path id="path2574" class="s1" d="m27 84.2q0.1 0.1 0.3 0.3 0 0 0.1 0.1 0.1 0.1 0.2 0.2 0.3 0.4 0.6 0.7-0.3-0.3-0.6-0.7-0.1-0.1-0.2-0.2-0.1-0.1-0.1-0.1-0.2-0.2-0.3-0.3z"/>
			<path id="path2572" class="s1" d="m89.5 84q0.1 0.1 0.1 0.1 0 0-0.1-0.1z"/>
			<path id="path2570" class="s1" d="m32.8 81.6q0.1 0 0.1 0.1 0-0.1-0.1-0.1z"/>
			<path id="path2568" class="s1" d="m28.7 80c1.2 0.4 2.3 0.8 3.1 1.1-0.8-0.3-1.9-0.7-3.1-1.1z"/>
			<path id="path2566" class="s1" d="m25.5 78.8q0.3 0.1 0.6 0.3-0.3-0.2-0.6-0.3z"/>
			<path id="path2564" class="s1" d="m25.1 78.6q0.2 0.1 0.4 0.2-0.2-0.1-0.4-0.2z"/>
			<path id="path2562" class="s1" d="m77.3 78.5q0.2 0.5 0.5 1-0.3-0.5-0.5-1z"/>
			<path id="path2560" class="s1" d="m24.7 78.4q0.1 0 0.1 0 0 0-0.1 0z"/>
			<path id="path2558" class="s1" d="m75.7 70.3q0 0-0.1 0 0 0.1 0 0.2 0-0.1 0-0.2 0.1 0 0.1 0z"/>
			<path id="path2556" class="s1" d="m76.9 69q-0.2 0.2-0.4 0.4-0.2 0.2-0.4 0.3 0.2-0.1 0.4-0.3 0.2-0.2 0.4-0.4z"/>
			<path id="path2552" class="s1" d="m78.1 67.5q-0.1 0.1-0.3 0.4-0.1 0.1-0.2 0.3 0.1-0.2 0.2-0.3 0.2-0.3 0.3-0.4z"/>
			<path id="path2550" class="s1" d="m78.4 67.2q-0.1 0-0.1 0.1 0 0-0.2 0.2 0.2-0.2 0.2-0.2 0-0.1 0.1-0.1z"/>
			<path id="path2548" class="s1" d="m78.7 66.8q-0.2 0.2-0.3 0.4 0.1-0.2 0.3-0.4z"/>
			<path id="path2546" class="s1" d="m27.7 65.8q0.3 0.1 0.4 0.1-0.1 0-0.4-0.1z"/>
			<path id="path2544" class="s1" d="m24.4 65.6q0.6 0 1 0-0.4 0-1 0z"/>
			<path id="path2542" class="s1" d="m21.1 65.5c1.3 0 2.4 0 3.3 0.1-0.9-0.1-2-0.1-3.3-0.1z"/>
			<path id="path2540" class="s1" d="m14.8 65.4q-0.2 0-0.3 0-0.4 0-0.7 0 0.3 0 0.7 0 0.1 0 0.3 0z"/>
			<path id="path2538" class="s1" d="m15.2 65.4q-0.2 0-0.4 0 0.2 0 0.4 0 1 0 2.1 0 1 0 2 0-1 0-2 0-1.1 0-2.1 0z"/>
			<path id="path2536" class="s1" d="m12.5 65.2q0 0.1 0 0.1 0 0 0.1 0 0 0 0 0 0 0 0 0-0.1 0-0.1 0 0 0 0-0.1z"/>
			<path id="path2534" class="s1" d="m12.3 65q0 0.1 0.1 0.2-0.1-0.1-0.1-0.2z"/>
			<path id="path2532" class="s1" d="m79.9 64.8q-0.1 0.2-0.2 0.4-0.2 0.3-0.5 0.7 0.3-0.4 0.5-0.7 0.1-0.2 0.2-0.4z"/>
			<path id="path2530" class="s1" d="m80.2 64.1q-0.1 0.3-0.3 0.7 0.2-0.4 0.3-0.7z"/>
			<path id="path2528" class="s1" d="m80.6 63.4q-0.1 0.2-0.2 0.4-0.1 0.1-0.2 0.3 0.1-0.2 0.2-0.3 0.1-0.2 0.2-0.4z"/>
			<path id="path2526" class="s1" d="m80.8 62.8q-0.1 0.3-0.2 0.6 0.1-0.3 0.2-0.6z"/>
			<path id="path2524" class="s1" d="m81 62.3q0 0.1-0.1 0.3 0 0.1-0.1 0.2 0.1-0.1 0.1-0.2 0.1-0.2 0.1-0.3z"/>
			<path id="path2522" class="s1" d="m81.4 59.1q0 0.1 0 0.3 0 0.2 0 0.3 0-0.1 0-0.3 0-0.2 0-0.3z"/>
			<path id="path2520" class="s1" d="m81.4 58.2q0 0.2 0 0.5 0-0.3 0-0.5z"/>
			<path id="path2512" class="s1" d="m81 56.2q0.1 0.4 0.1 0.7 0-0.3-0.1-0.7z"/>
			<path id="path2504" class="s0" d="m35.1 50.9q-0.1 0.1-0.1 0.2 0-0.1 0.1-0.2z"/>
			<path id="path2500" class="s1" d="m4.7 49.3q0.5 1.3 1 2.6-0.5-1.3-1-2.6z"/>
			<path id="path2492" class="s0" d="m77.7 45.2q0.1 0.4 0.2 0.8 0.2 0.6 0.3 1.1-0.1-0.5-0.3-1.1-0.1-0.4-0.2-0.8z"/>
			<path id="path2486" class="s1" d="m30.1 40.6q1.2 0.4 2.2 0.9-1-0.5-2.2-0.9z"/>
			<path id="path2484" class="s0" d="m75.7 38.9q0 0.2 0 0.3l0.6 1.4-0.6-1.4q0-0.1 0-0.3z"/>
			<path id="path2482" class="s1" d="m75.6 35.6q0 1 0 1.9 0-0.9 0-1.9z"/>
			<path id="path2480" class="s1" d="m64.4 32q0 0.2 0.1 0.3 0 0 0 0 0 0 0 0-0.1-0.1-0.1-0.3z"/>
			<path id="path2478" class="s1" d="m10.7 30.3q0.4 0.3 0.8 0.6-0.4-0.3-0.8-0.6z"/>
			<path id="path2476" class="s1" d="m73.7 21.1q0.2 0.8 0.4 1.5-0.2-0.7-0.4-1.5z"/>
			<path id="path2474" class="s1" d="m63.9 29.1c0.2 1.3 0.3 2.3 0.5 2.9-0.2-0.6-0.3-1.6-0.5-2.9z"/>
			<path id="path2472" class="s1" d="m63.5 25.3c0.2 1.4 0.3 2.7 0.4 3.8-0.1-1.1-0.2-2.4-0.4-3.8z"/>
			<path id="path2470" class="s1" d="m63.1 19.1q0.1 0.7 0.1 1.4 0 0.5 0 0.9 0.1 0.2 0.1 0.4 0.1 1.9 0.2 3.5-0.1-1.6-0.2-3.5 0-0.2-0.1-0.4 0-0.4 0-0.9 0-0.7-0.1-1.4z"/>
			<path id="path2468" class="s1" d="m73 18.6q0.2 0.6 0.3 1.1-0.1-0.5-0.3-1.1z"/>
			<path id="path2466" class="s1" d="m72.7 17.5q0.2 0.5 0.3 1.1-0.1-0.6-0.3-1.1z"/>
			<path id="path2464" class="s1" d="m71.8 14.8q0.3 0.9 0.6 1.7-0.3-0.8-0.6-1.7z"/>
			<path id="path2460" class="s1" d="m70.3 11.2q0.4 0.9 0.8 1.8-0.4-0.9-0.8-1.8z"/>
			<path id="path2458" class="s1" d="m69.8 10.1q0.3 0.6 0.5 1.1-0.2-0.5-0.5-1.1z"/>
			<path id="path2456" class="s1" d="m69.3 9q0.2 0.5 0.5 1.1-0.3-0.6-0.5-1.1z"/>
			<path id="path2454" class="s1" d="m67.6 6q0.3 0.4 0.5 0.9-0.2-0.5-0.5-0.9z"/>
			<path id="path2452" class="s1" d="m66.7 4.7q0.4 0.6 0.9 1.3-0.5-0.7-0.9-1.3z"/>
			<path id="path2450" class="s1" d="m65.6 3.2q0.1 0.1 0.2 0.3 0.2 0.2 0.3 0.4-0.1-0.2-0.3-0.4-0.1-0.2-0.2-0.3z"/>
			<path id="path2448" class="s1" d="m65 2.6q0.3 0.2 0.6 0.6-0.3-0.4-0.6-0.6z"/>
			<path id="path2446" class="s1" d="m63 13.8c0 1.7 0 3.1 0.1 4q0 0.7 0 1.3 0-0.6 0-1.3c-0.1-0.9-0.1-2.3-0.1-4z"/>
			<path id="path2444" class="s1" d="m63 6.4c-0.1 0.7-0.1 1.5-0.1 2.4q0 1.6 0.1 3.3 0 0.9 0 1.7 0-0.8 0-1.7-0.1-1.7-0.1-3.3c0-0.9 0-1.7 0.1-2.4z"/>
			<path id="path2442" class="s1" d="m63 5.3q0 0.4 0 1.1 0-0.7 0-1.1z"/>
			<path id="path2389" class="s1" d="m63.7 2.1c-0.3 0.2-0.4 0.7-0.6 1.8q0 0 0 0 0 0.5-0.1 1.2 0 0.1 0 0.2 0-0.1 0-0.2 0.1-0.7 0.1-1.2 0 0 0 0c0.2-1.1 0.3-1.6 0.6-1.8q0 0 0 0z"/>
			<g id="g2739">
				<path id="path2462" fill-rule="evenodd" class="s1" d="m64.3 12.2h0.5c1.7 0.2 3.1 0.7 4.7 1.8 1.4 0.9 1.4 0.9 2 3 0.7 1.8 1.5 5 1.9 6.7q0 0.2 0.1 0.5c0.5 2.7 0.9 6.6 1.1 9.6q0 0.5 0 1l0.1 1.1v1.5l-0.9-0.9c-0.6-0.7-0.9-0.9-1.1-0.9q-0.1 0-0.1 0 0 0 0 0 0 0 0 0 0 0 0 0-0.2 0-0.2 0.1 0 0.3 0.6 1.2c0.4 0.4 0.7 0.9 0.7 0.9 0 0 0.2 0.3 0.4 0.6 0.6 0.8 1.5 2.8 1.9 4.1 0.4 1.2 0.9 3 1.2 4.7q0.6 3 1.9 6.3c0.1 0.5 0.3 0.8 0.3 0.9q0 0 0 0c-0.1 0.1-0.3 0.1-0.7 0.1-1.2 0-2 0.4-2.8 1.2q0 0.1-0.1 0.1 0 0 0 0-0.1 0.2-0.3 0.4c-0.5 0.7-0.8 1.6-0.8 2.7q0 0.1 0 0.1 0 0.1 0 0.1 0 0 0 0 0 0.1 0 0.1c0 1.5 0.4 2.6 1.2 3.5 0.7 0.7 1.7 1.3 2.5 1.4h0.6q0 0.1 0 0.1l-0.2 0.3c-0.1 0.1-0.2 0.4-0.3 0.5q0 0 0 0-0.2 0.3-0.3 0.5c-0.5 0.7-1.3 1.7-1.9 2.4q-0.6 0.6-1.2 1.3c-1.5 1.4-3.5 3.1-5.2 4.2-1 0.7-3.2 2-3.3 2-0.1 0-0.2 0.1-0.2 0.2q0 0 0 0 0 0.1 0 0.1 0 0.1 0.1 0.2c0 0.1 0.2 0.1 0.9-0.2 0.9-0.3 2.9-1.3 3.6-1.9 0.3-0.2 0.7-0.5 1-0.6 0.2-0.2 0.9-0.7 1.5-1.2 0.5-0.5 1-0.8 1.1-0.8 0 0.1 0.1 0.7 0.2 1.4 0.3 2.9 1.3 5.8 3.2 9.5 0.5 0.9 0.9 1.8 0.9 1.8 0 0.1-0.2 0.2-0.4 0.2-1.1 0.2-1.6 0.5-2.3 1q0 0 0 0 0 0.1 0 0.1 0 0 0 0c-0.6 0.5-0.7 0.6-0.5 0.8q0 0.1 0 0.1c0.2 0.2 0.2 0.2 0.4 0 0.3-0.3 1.5-0.8 2.3-0.9q0.2-0.1 0.4-0.1 0.2 0 0.4 0 0.1 0 0.2 0c1.2 0.1 2.3 0.8 3.9 2.2l0.8 0.8c0.4 0.4 0.5 0.6 0.5 0.7l-0.5 1.3c-1.1 2.9-1.6 5-1.7 6.3q0 0.5 0.1 0.8 0 0.1 0.1 0.2 0 0 0 0 0 0.1 0.1 0 0 0 0 0 0 0 0 0c0.2 0 0.3-0.2 0.7-1.7 0.8-3.1 2.1-6.8 3.3-9.1l0.3-0.8q0.1-0.1 0.1-0.1v1c-0.1 0.7-0.2 1.7-0.3 2.3-0.1 0.8-0.1 1.2-0.1 1.4q0.1 0.1 0.3 0.1 0 0 0 0c0.1 0 0.3-0.2 0.4-0.6q0 0 0 0 0.1-0.1 0.1-0.2c0.3-0.8 0.6-2.2 0.7-3.7q0.1-1.2 0.3-1.5 0.1-0.1 0.1-0.1c0.2 0.1 0.1 2.3 0 3.3 0 0.3-0.1 0.7-0.1 1.1q0 0.4-0.1 0.9c0 0.4 0 0.6 0 0.7 0 0.2 0 0.2 0.1 0.2q0 0.1 0.1 0.1 0.1 0 0.3-0.3 0.1-0.2 0.3-0.6c0.1-0.5 0.3-1.2 0.4-2l0.2-0.8q0 0 0 0.1 0 0 0 0l-0.1 1.6q0 0.2 0 0.4c-0.3 5.1-2.3 11.1-4.6 14.2-0.7 1-1.4 1.5-1.8 1.4q0 0 0 0-0.1 0-0.1 0 0 0 0 0c-0.4-0.1-0.8-0.8-1-1.4-0.1-0.3-0.1-0.4-0.3-0.4q-0.1-0.1-0.2 0c-0.1 0-0.2 0.1-0.2 0.3q0 0.1 0 0.2 0 0.1-0.1 0.1c0 0.3-0.1 0.4-0.5 0.4-0.3 0.1-0.9 0.2-1.5 0.2-2 0.3-4 0.4-5.7 0.5q-0.9 0-1.8 0c-0.8 0-1.4 0-1.9 0-1.1-0.1-1.8-0.2-1.9-0.4-0.1-0.1-0.2-0.3-0.2-0.3q0 0 0-0.1 0 0 0 0c0.2-0.3 0.7-1.3 1.3-2.5q0.9-1.5 1.6-2.9c0-0.1 0.1-0.2 0.1-0.2 0.2-0.3 0.4-0.8 0.7-1.4 2.2-4.7 3.2-8.5 3.7-13.3 0.3-2.4 0.3-5.3 0-5.6-0.2-0.1-0.3-0.2-0.4 0.1q-0.1 0.1-0.1 0.6c-0.1 0.4-0.1 1-0.2 1.8-0.4 6-1.2 9.4-3 13.8-0.7 1.8-3.1 6.6-3.6 7.2-0.1 0.2-0.5 1-0.8 1.7q-0.4 0.7-0.4 0.9 0 0 0 0 0 0 0 0 0 0.1 0.1 0.2 0 0.1 0 0.1c0.1 0.2 0.2 0.4 0.4 0.5l0.3 0.4 0.2 0.2-0.5 0.1q-0.1 0-0.2 0 0 0 0 0 0 0 0 0-0.1 0-0.1 0c-0.2-0.1-0.3-0.2-0.6-0.4-0.4-0.5-0.5-0.5-0.6-0.3-0.2 0.2-0.2 0.2 0 0.7 0.1 0.2 0.2 0.4 0.2 0.5q0 0 0 0.1 0 0 0 0-0.1 0-0.4-0.1-0.4-0.2-0.6-0.6c-0.1-0.2-0.2-0.3-0.3-0.4q0 0 0 0-0.1 0-0.2 0.1c-0.1 0-0.2 0.1-0.2 0.4q0 0 0 0.1 0 0.1 0 0.1c0 0.4 0 0.6 0 0.6-0.1 0-0.5-0.2-0.9-0.5-0.5-0.3-1-0.5-1.1-0.5-0.3 0-0.5 0.3-0.5 0.8q0 0.2 0 0.3-0.1 0-0.3-0.1-0.1-0.2-0.4-0.5-0.3-0.4-0.5-0.6l-0.2-0.1h-0.1q-0.2 0-0.4 0.2-0.1 0.1-0.1 0.1-0.2 0-0.3 0.1c-0.1 0-0.3-0.2-0.5-0.7-0.3-0.6-0.3-0.8-0.3-2.2 0-1.9-0.3-5.9-0.6-8.4-0.3-2.4-0.3-2.7 0.9-8.1 0.2-0.9 0.3-1.5 0.3-1.8q0.1-0.1 0.1-0.2 0-0.1 0-0.1-0.1-0.2-0.3-0.1-0.2 0-0.4 0.4c-0.3 0.6-1.1 3.1-1.1 3.8-0.1 0.3-0.2 0.6-0.2 0.5-0.1-0.1-0.2-0.8-0.4-1.6-0.4-2.1-0.8-3.5-1.2-4.5q0 0 0 0-0.2-0.4-0.4-0.7c-0.2-0.4-0.3-0.4-0.5-0.3q0 0 0 0.1-0.1 0 0 0.2 0 0 0 0 0 0 0 0 0 0.2 0.1 0.8 0.1 0.5 0.3 1.3c0.1 0.6 0.3 1.1 0.4 1.5q0.4 2.2 0.8 4.4c0.7 4.7 1.1 8.9 1.1 12.2l0.1 2.5 0.1 0.2 0.1 0.2q0.1 0.3 0.3 0.5 0.2 0.3 0.2 0.4-0.1 0-0.1 0-0.2 0-0.4-0.1-0.5-0.2-0.8-0.2 0 0 0 0-0.1 0-0.1 0c-0.3 0.1-0.5 0.2-0.8 0.6q-0.2 0.2-0.4 0.4 0 0-0.1 0.1c-0.3 0.3-0.4 0.1-0.7-0.3-0.3-0.4-0.5-0.6-0.7-0.6q0 0 0 0 0 0 0 0 0 0 0 0 0 0 0 0 0 0 0 0 0 0 0 0.1c-0.2 0-0.5 0.2-0.8 0.4q-0.3 0.2-0.5 0.4-0.2 0.1-0.3 0.1c0 0-0.2-0.1-0.3-0.2q0-0.1 0-0.1-0.2-0.3-0.3-0.4-0.2-0.1-0.2-0.1-0.1 0-0.1 0 0 0 0 0 0 0-0.2 0 0 0.1-0.1 0.1 0 0.1 0 0.1-0.2 0.1-0.3 0.2l-0.4 0.3q-0.1 0.1-0.2 0 0 0-0.1-0.2l-0.1-0.1q0-0.1 0-0.1-0.2-0.3-0.4-0.3c-0.2-0.1-0.5 0-0.9 0.3q-0.2 0.1-0.3 0.1-0.2 0.1-0.3 0.1c0 0 0.1-0.3 0.3-0.7 0.2-0.4 0.3-0.9 0.3-1.1q0 0 0 0 0 0 0 0 0-0.1 0-0.2-0.2-0.5-1.1-2c-0.7-1.1-1.3-2.2-1.5-2.5-0.2-0.3-0.4-0.6-0.5-0.8-0.1-0.2-0.4-0.6-0.6-1-0.2-0.4-0.5-0.9-0.6-1.1-0.1-0.2-0.5-0.9-0.8-1.5-0.3-0.5-0.5-1-0.6-1.1q-0.2-0.5-0.4-0.9c-0.5-1-1.3-2.9-1.8-4-0.4-1.1-1.5-4.5-1.9-6.1q0 0 0 0 0-0.2 0-0.3-0.1-0.3-0.3-0.2 0 0 0 0-0.1 0-0.2 0 0 0.1 0 0.1-0.1 0.1 0 0.5 0 0.3 0 0.9c0.1 0.5 0.2 1.2 0.3 1.8 0.9 3.8 3.5 9.2 7.4 15.7 1.5 2.5 1.6 2.7 1.6 2.9-0.1 0.1-0.3 0.2-1.4 0.3-0.8 0-1.4 0.1-1.5 0.1-0.8 0.1-3.4 0.2-5.9 0.2-0.7 0-1.1 0-1.5 0-1.9 0-2.3-0.1-3.2-0.5l-0.4-0.1v-1.1c0.1-0.7 0-1.5-0.1-2.1-0.1-1.3-0.4-2-0.8-1.8-0.1 0-0.1 0.6-0.2 2.5 0 2.1 0 2.5-0.2 2.8q-0.1 0-0.1 0.1-0.1 0-0.1 0.1c-0.1 0-0.2 0-0.4-0.1-1.6-0.9-4-5.3-5.5-10.2-0.9-3-1.5-5.9-1.5-7 0-0.3 0-0.3 0.3 0.3 0.4 1 1 1.7 1.2 1.2 0.1-0.1 0-0.6-0.1-1-0.5-1.3-0.7-2.2-0.8-3.2q0-0.4 0-0.6 0-0.2 0-0.3 0.1 0 0.1 0 0 0 0.1 0.1 0 0 0.1 0.1 0.1 0.2 0.1 0.5c0 1.3 0.6 3.4 1.3 4.2 0.3 0.3 0.4 0.4 0.5 0.3q0.1-0.1 0.1-0.3 0-0.2-0.2-0.6c-0.3-1.4-0.6-2.6-0.6-2.8q0 0 0 0c0.2 0.1 0.8 1 1.4 2 0.7 1.2 1.5 2.7 2.1 4 0.3 0.5 0.4 0.8 0.6 0.8 0.4 0 0.3-0.6-0.2-2-0.3-0.9-0.9-2.1-1.4-2.9q0 0 0 0-0.1-0.2-0.1-0.3c0-0.1 0.1-0.2 0.3-0.5q0.1-0.2 0.2-0.3 0.1-0.1 0.2-0.2 0.1-0.1 0.3-0.2c1-0.9 2.4-1.1 4.1-0.7q0.3 0 0.6 0.1 0 0 0.1 0c0.5 0.2 1 0.4 1.7 0.9q0.3 0.1 0.4 0.2c0.3 0.2 0.6 0.3 0.7 0.2 0.2 0 0.1-0.3-0.4-0.9-0.6-0.6-1.9-1.3-2.9-1.5-0.2-0.1-0.4-0.2-0.5-0.3q0 0 0-0.1c0.1-0.1 0.2-0.4 0.3-0.7 1.2-2.9 2.9-8.8 3.1-11 0.1-0.6 0.2-1.3 0.2-1.6l0.1-0.5q0 0 0.1 0l0.5 0.7c1.5 1.8 4.2 3.6 6.1 4.1 1.1 0.3 1.6 0.3 1.6 0q0 0 0-0.1 0 0-0.1-0.1-0.1-0.2-0.7-0.4c-0.3-0.1-1.1-0.4-1.6-0.7q-1.3-0.6-2.3-1.4-0.8-0.6-1.5-1.2-0.8-0.9-1.5-1.9-0.7-1.1-1.2-2.4c-0.8-2-1.1-3.8-1.3-8.6 0-1.6-0.1-3.3-0.2-3.7q0-0.1 0-0.3c-0.1-1.5-0.1-2.7-0.1-3.7 0.1-1.7 0.2-3.6 0.5-5.1 0.4-1.8 0.6-2.6 0.8-2.7q0.1 0 0.2 0c0.2 0 0.4 0 0.8 0q0.3 0.1 0.5 0.1 0.3 0 0.4 0 0.3-0.1 0.3-0.3 0 0 0 0 0-0.1 0-0.1 0 0 0 0c0-0.2-0.2-0.3-0.9-0.4-1.9-0.3-8.8-2.9-12.3-4.5-0.6-0.3-1-0.5-1.1-0.5 0 0-1.5-0.7-3.3-1.6l-2.6-1.3c-0.3-0.1-0.5-0.2-0.6-0.3q-0.2-0.1-0.4-0.4l-0.2-0.5c-0.7-1-1-2.2-1.2-3.5q0-0.4 0-1.1 0-0.6 0-1.1c0.1-0.9 0.1-0.9 1.5-0.6q7.9 1.3 15.3 4.2c3.9 1.6 9 4.3 10.8 5.8 0.6 0.6 0.9 0.7 1.1 0.4q0.1-0.1-0.4-0.8-0.2-0.2-0.4-0.4 0 0 0 0c-0.5-0.5-0.7-0.6-0.3-0.8q0.1-0.1 0.2-0.1 0.4-0.2 1.3-0.4c2.5-0.8 3.6-1 7-1.5 1.1-0.2 2.4-0.3 3.8-0.3q0.9-0.1 2-0.1c1.1 0 2 0 2.7 0.1q0.3 0 0.6 0c1.1 0.1 4.2 0.7 5.2 1 0.3 0.1 0.8 0.2 0.9 0.2 0.3-0.1 0.3-0.2 0.2-0.3q0-0.1-0.2-0.2c-0.3-0.3-1-0.6-1.8-0.8-0.9-0.3-0.9-0.4-1.1-1.3-0.2-0.7-0.7-4.8-0.8-6.1-0.1-0.6-0.1-1.2-0.2-1.4-0.1-1.2-0.4-6.4-0.5-9.4v-0.7q0-0.4 0-0.8v-0.9zm5.3 32.3c-0.9 0.4-1.5 1.1-1.9 2-0.4 0.9-0.4 2.3 0.1 3.2 0.5 1.2 1.3 1.9 2.6 2.4 0.6 0.2 1.9 0.1 2.6-0.2 0.8-0.4 1.6-1.1 2-1.9 0.4-1 0.4-2.5 0-3.5-0.7-1.5-2.2-2.4-3.6-2.4q-0.9 0-1.8 0.4zm-65-0.1c1.5 0 5.4 0.4 7.7 0.8 7.1 1.1 13.2 2.8 19.8 5.6 0.9 0.3 1.9 0.8 2.2 1l0.7 0.3v0.1l0.1 1.4c0 0.8 0.1 2.4 0.2 3.6 0.1 1.2 0.1 2.5 0.1 3 0 1.8 0.4 4.2 0.9 5.9l0.2 0.8q0 0-0.1 0.2l-0.5 0.6c-0.3 0.5-0.6 0.9-0.7 1.1-0.1 0.1-0.6 0.8-1.1 1.5-1.4 1.9-2.2 3-2.3 3.2 0 0.1-0.2 0.5-0.5 0.9-0.3 0.6-0.5 1.1-0.3 1.3 0 0 1.1 0.5 2.3 1.1 1.3 0.6 2.3 1.1 2.3 1.2 0.1 0-0.3 1.4-0.7 2.7-0.3 0.7-0.5 1.3-0.6 1.3 0 0-0.2-0.3-0.3-0.6q0-0.2-0.1-0.3l-0.1-0.3-0.2-0.1q0-0.1 0-0.1c-0.6-0.3-2.8-1.2-6.6-2.5-0.6-0.2-1.1-0.4-1.2-0.4q0-0.1 0.1-0.4c0.3-1.3 1.7-6.2 2.9-10.2 0.5-1.6 0.6-2.1 0.5-2.2q0-0.1-0.1-0.1c-0.1-0.1-0.5-0.2-1.9-0.3-0.1 0-0.2 0-0.4 0-3.8-0.2-10.2-0.4-12-0.3h-0.8-1l-0.2-0.3-0.3-0.3q0-0.1 0-0.1-0.2-0.3-0.4-0.6 0-0.1 0-0.1c0 0-0.3-0.4-0.5-0.9-0.7-1.1-2.8-5.4-3.8-7.7-1.3-3-1.8-4-2.4-5.6-1.1-2.8-1.5-4-1.4-4.1q0-0.1 0.3-0.1 0.1 0 0.2 0zm42.9 1c-0.9 0-1.1 0.1-1.7 0.3-1.1 0.6-1.9 1.5-2.2 2.7-0.2 0.7-0.2 1.4 0 2.1q0 0.1 0.1 0.3c0.4 1 1.1 1.9 2.2 2.4 0.9 0.4 2.4 0.4 3.3 0 0.8-0.4 1.6-1.2 2-2 0.3-0.6 0.4-0.9 0.4-1.7 0-0.9-0.1-1.2-0.3-1.7q-0.1-0.1-0.2-0.2-0.1-0.3-0.3-0.6c-0.4-0.5-1-1-1.6-1.3-0.5-0.2-0.8-0.3-1.5-0.3q-0.1 0-0.2 0 0 0 0 0zm14.6 5.1c-0.4 0.1-0.8 0.2-0.9 0.3q0 0 0 0-0.1 0.1-0.2 0.2 0 0 0 0c0 0.1 0 0.2 0.2 0.4 0.1 0.2 0.3 0.4 0.5 0.5 0.3 0.2 0.5 0.2 0.6 0.2q0.1 0 0.1 0 0 0 0 0 0 0 0.1 0 0.1-0.1 0.2-0.2c0.3-0.2 0.7-0.7 0.7-1q0-0.4-0.7-0.4-0.3 0-0.6 0zm-2.1 4.1q-0.1 0.1-0.3 0.2-0.1 0-0.2 0.1c-2.7 1.4-3.2 1.6-4.3 1.6-0.7 0-1.1-0.1-1.7-0.3-0.4-0.2-0.7-0.3-0.9-0.3q0-0.1 0-0.1 0 0 0 0-0.2 0-0.2 0c-0.1 0-0.2 0-0.2 0.1q0 0 0 0 0 0 0 0 0 0 0 0 0 0.1 0 0.1c-0.1 0.1 0 0.3 0.4 0.6q0.1 0.1 0.2 0.2c0.2 0.1 0.4 0.3 0.4 0.4q0.1 0 0.1 0.1 0 0 0 0 0.1 0 0.1 0 0 0.1 0 0.1 0.1 0.2 0.2 0.9c0.7 5.5 3 10.5 5.6 12.2q0.1 0.1 0.3 0.2 0.2 0.1 0.4 0.2c1.5 0.5 2.8 0.1 4.1-1.3 1.3-1.5 2.7-4.2 3.7-7.4 0.6-2.1 1-3.6 1.1-4.6q0-0.2 0-0.3 0.1-0.3 0.1-0.5c0.1-0.2 0.3-0.2 0.6-0.4 0.6-0.3 1-0.8 0.9-1.1 0-0.2 0-0.2-1 0.2q-0.3 0.1-0.6 0.2-0.5 0-1 0c-0.5-0.1-1.2-0.4-2.4-0.9-1.1-0.5-2.2-1-2.5-1.1q-0.2 0-0.4 0c-0.5 0-1.1 0.2-2.5 0.9zm-18.6 2.1c-2.2 0.5-3.6 1.9-4.1 4.1-0.1 0.5-0.1 0.9 0.1 1.4q0 0.3 0.1 0.7c0.1 0.2 0.1 0.4 0.3 0.7q0 0 0 0 0.5 1.1 1.5 1.8 0 0.1 0.1 0.1 0.1 0.1 0.4 0.2 0.7 0.4 1.6 0.6c0.3 0 0.7 0.1 1 0 1.9-0.2 3.3-1.1 4.1-2.6 0.2-0.6 0.3-0.8 0.3-1.4q0.2-0.9 0-1.8c0-0.4-0.1-0.6-0.3-1q-0.2-0.5-0.5-0.9-0.5-0.7-1.3-1.2c-0.8-0.5-1.7-0.7-2.5-0.7q-0.4 0-0.8 0z"/>
				<path id="path2510" class="s2" d="m78.9 55.5c-0.5 0-1 0.1-1.4 0.3-0.7 0.3-1.3 1-1.6 1.8-0.3 0.8-0.3 2.2 0 3.2q0.1 0.2 0.2 0.5c0.4 0.6 1 1.2 1.5 1.5 0.5 0.3 1.4 0.3 1.8 0.1 0.6-0.3 1.2-2.6 1-4.2-0.1-1.3-0.4-2.8-0.7-3-0.2-0.1-0.5-0.2-0.8-0.2zm-36.7 2.1q-0.3 0-0.6 0c-1.7 0.4-2.9 1.5-3.3 3.3 0 0.4 0 0.7 0.1 1.1q0 0.3 0.1 0.6c0 0.1 0.1 0.3 0.2 0.5q0 0 0 0 0.4 0.9 1.2 1.5 0.1 0.1 0.1 0.1 0.1 0.1 0.3 0.2 0.6 0.3 1.3 0.4c0.2 0.1 0.6 0.1 0.9 0 1.4-0.1 2.6-0.9 3.2-2.1 0.2-0.5 0.3-0.6 0.3-1.1q0.1-0.7 0-1.5c0-0.3-0.1-0.5-0.3-0.8q-0.1-0.3-0.4-0.6-0.4-0.6-1-1c-0.6-0.4-1.4-0.6-2.1-0.6z"/>
				<path id="path2498" class="s3" d="m70.7 45.2c-0.7 0-1.3 0.7-1.3 1.4q0 0 0 0c0 0.3 0.1 0.7 0.3 0.9q0 0 0 0.1 0.1 0 0.1 0.1 0.1 0.1 0.2 0.2c0.4 0.2 1.1 0.2 1.5-0.1 0.5-0.4 0.7-1.1 0.5-1.6-0.2-0.5-0.8-1-1.3-1zm-23 1.2q0 0-0.1 0.1c-1 0.1-1.5 1-1.1 2q0.2 0.3 0.5 0.5c0.5 0.3 1.1 0.3 1.6-0.1 0.4-0.3 0.5-0.4 0.5-1q0-0.1 0-0.2 0-0.3-0.1-0.6-0.1-0.1-0.3-0.2-0.2-0.3-0.4-0.4-0.2-0.1-0.6-0.1z"/>
				<path id="path2720" class="s4" d="m61 59.7c-2 0.1-3.8 1.2-5.4 3 0.9 3.2 2.4 5.8 3.9 6.9q0.2 0.1 0.4 0.2 0.1 0.1 0.3 0.2c1.3 0.6 2.5 0.2 3.7-1.3 1-1.2 2.1-3.4 2.9-6-2.1-2.1-4.1-3-5.8-3z"/>
			</g>
		</g>
	</g>
</svg>